<svg width="192.000000" height="48.000000" viewBox="0 0 192 48" fill="none" xmlns="http://www.w3.org/2000/svg" xmlns:xlink="http://www.w3.org/1999/xlink">
	<desc>
			Created with Pixso.
	</desc>
	<defs/>
	<path id="Vector" d="M184.28 33.67C182.98 33.67 181.82 33.39 180.82 32.81C179.84 32.21 179.07 31.41 178.52 30.41L178.52 40.17L174.23 40.17L174.23 16.59L177.97 16.59L177.97 19.47C178.61 18.49 179.42 17.72 180.4 17.16C181.39 16.59 182.51 16.3 183.76 16.3C184.9 16.3 185.93 16.52 186.87 16.97C187.83 17.42 188.66 18.05 189.36 18.86C190.07 19.65 190.61 20.57 191 21.61C191.4 22.63 191.6 23.74 191.6 24.94C191.6 26.56 191.28 28.03 190.64 29.35C190.03 30.68 189.16 31.73 188.05 32.52C186.96 33.29 185.71 33.67 184.28 33.67ZM182.84 30.03C183.5 30.03 184.1 29.89 184.63 29.61C185.16 29.33 185.62 28.96 186 28.49C186.41 28 186.71 27.46 186.9 26.86C187.11 26.24 187.22 25.6 187.22 24.94C187.22 24.24 187.1 23.58 186.87 22.99C186.66 22.39 186.34 21.87 185.91 21.42C185.48 20.95 184.98 20.59 184.4 20.33C183.85 20.08 183.24 19.95 182.58 19.95C182.18 19.95 181.76 20.02 181.33 20.17C180.93 20.3 180.53 20.49 180.15 20.75C179.76 21 179.42 21.3 179.12 21.64C178.85 21.98 178.64 22.36 178.52 22.76L178.52 26.7C178.77 27.32 179.11 27.88 179.54 28.39C179.99 28.91 180.5 29.31 181.08 29.61C181.65 29.89 182.24 30.03 182.84 30.03Z" fill="#B7B6B6" fill-opacity="1.000000" fill-rule="evenodd"/>
	<path id="Vector" d="M164 33.67C162.69 33.67 161.54 33.39 160.54 32.81C159.56 32.21 158.79 31.41 158.24 30.41L158.24 40.17L153.95 40.17L153.95 16.59L157.69 16.59L157.69 19.47C158.33 18.49 159.14 17.72 160.12 17.16C161.1 16.59 162.22 16.3 163.48 16.3C164.61 16.3 165.65 16.52 166.59 16.97C167.55 17.42 168.38 18.05 169.08 18.86C169.79 19.65 170.33 20.57 170.72 21.61C171.12 22.63 171.32 23.74 171.32 24.94C171.32 26.56 171 28.03 170.36 29.35C169.75 30.68 168.88 31.73 167.77 32.52C166.68 33.29 165.42 33.67 164 33.67ZM162.56 30.03C163.22 30.03 163.81 29.89 164.35 29.61C164.88 29.33 165.34 28.96 165.72 28.49C166.13 28 166.43 27.46 166.62 26.86C166.83 26.24 166.94 25.6 166.94 24.94C166.94 24.24 166.82 23.58 166.59 22.99C166.37 22.39 166.05 21.87 165.63 21.42C165.2 20.95 164.7 20.59 164.12 20.33C163.57 20.08 162.96 19.95 162.3 19.95C161.89 19.95 161.48 20.02 161.05 20.17C160.65 20.3 160.25 20.49 159.87 20.75C159.48 21 159.14 21.3 158.84 21.64C158.57 21.98 158.36 22.36 158.24 22.76L158.24 26.7C158.49 27.32 158.83 27.88 159.26 28.39C159.71 28.91 160.22 29.31 160.8 29.61C161.37 29.89 161.96 30.03 162.56 30.03Z" fill="#B7B6B6" fill-opacity="1.000000" fill-rule="evenodd"/>
	<path id="Vector" d="M139.04 10.64L143.52 10.64L151.87 33.36L147.33 33.36L145.22 27.69L137.28 27.69L135.2 33.36L130.66 33.36L139.04 10.64ZM144.42 24.59L141.28 15.21L138.02 24.59L144.42 24.59Z" fill="#B7B6B6" fill-opacity="1.000000" fill-rule="evenodd"/>
	<path id="Vector" d="M131.49 20.3C130.19 20.3 129.03 20.56 128.01 21.07C126.98 21.56 126.25 22.27 125.8 23.21L125.8 33.36L121.51 33.36L121.51 16.59L125.45 16.59L125.45 20.17C126.04 19.02 126.8 18.11 127.72 17.45C128.64 16.79 129.61 16.43 130.63 16.36C130.86 16.36 131.05 16.36 131.17 16.36C131.3 16.36 131.41 16.37 131.49 16.4L131.49 20.3Z" fill="#F5F4F4" fill-opacity="1.000000" fill-rule="evenodd"/>
	<path id="Vector" d="M110.13 33.67C108.79 33.67 107.57 33.45 106.48 33C105.39 32.53 104.47 31.9 103.7 31.11C102.93 30.3 102.33 29.39 101.91 28.36C101.5 27.32 101.3 26.22 101.3 25.07C101.3 23.47 101.65 22.01 102.35 20.68C103.08 19.36 104.1 18.3 105.43 17.52C106.77 16.7 108.35 16.3 110.16 16.3C112 16.3 113.56 16.7 114.87 17.52C116.17 18.3 117.16 19.36 117.84 20.68C118.55 21.98 118.9 23.39 118.9 24.91C118.9 25.16 118.89 25.43 118.87 25.71C118.84 25.96 118.82 26.18 118.8 26.35L105.84 26.35C105.93 27.2 106.17 27.95 106.58 28.59C107 29.23 107.54 29.72 108.18 30.06C108.84 30.38 109.54 30.54 110.29 30.54C111.14 30.54 111.94 30.34 112.69 29.93C113.46 29.5 113.98 28.95 114.26 28.27L117.94 29.29C117.53 30.14 116.95 30.9 116.18 31.56C115.43 32.22 114.55 32.75 113.52 33.13C112.5 33.49 111.37 33.67 110.13 33.67ZM105.75 23.63L114.51 23.63C114.43 22.77 114.18 22.04 113.78 21.42C113.39 20.78 112.88 20.29 112.24 19.95C111.6 19.58 110.89 19.4 110.1 19.4C109.33 19.4 108.63 19.58 107.99 19.95C107.37 20.29 106.86 20.78 106.45 21.42C106.07 22.04 105.83 22.77 105.75 23.63Z" fill="#F5F4F4" fill-opacity="1.000000" fill-rule="evenodd"/>
	<path id="Vector" d="M98.62 33.36L94.34 33.36L94.34 23.95C94.34 22.65 94.08 21.67 93.57 21.04C93.08 20.39 92.4 20.08 91.52 20.08C91.01 20.08 90.46 20.22 89.89 20.52C89.31 20.82 88.79 21.24 88.32 21.77C87.87 22.28 87.54 22.88 87.33 23.56L87.33 33.36L83.04 33.36L83.04 10L87.33 10L87.33 19.69C87.95 18.62 88.79 17.79 89.86 17.2C90.92 16.6 92.09 16.3 93.34 16.3C94.43 16.3 95.32 16.49 96 16.87C96.68 17.24 97.22 17.74 97.6 18.38C97.98 19 98.25 19.7 98.4 20.49C98.55 21.26 98.62 22.06 98.62 22.89L98.62 33.36Z" fill="#F5F4F4" fill-opacity="1.000000" fill-rule="evenodd"/>
	<path id="Vector" d="M80.81 32.49C80.44 32.64 80.01 32.81 79.5 33C78.98 33.2 78.43 33.34 77.83 33.45C77.26 33.58 76.67 33.64 76.07 33.64C75.28 33.64 74.56 33.5 73.9 33.23C73.23 32.95 72.7 32.51 72.3 31.91C71.91 31.3 71.72 30.5 71.72 29.51L71.72 19.88L69.51 19.88L69.51 16.59L71.72 16.59L71.72 11.15L76.01 11.15L76.01 16.59L79.53 16.59L79.53 19.88L76.01 19.88L76.01 28.07C76.03 28.65 76.19 29.07 76.49 29.32C76.79 29.58 77.16 29.71 77.61 29.71C78.06 29.71 78.49 29.63 78.92 29.48C79.35 29.33 79.69 29.21 79.94 29.1L80.81 32.49Z" fill="#F5F4F4" fill-opacity="1.000000" fill-rule="evenodd"/>
	<path id="Vector" d="M51.39 28.39C51.39 27.31 51.69 26.36 52.28 25.55C52.9 24.72 53.76 24.08 54.84 23.63C55.93 23.18 57.18 22.96 58.59 22.96C59.29 22.96 60.01 23.01 60.73 23.11C61.46 23.22 62.09 23.39 62.62 23.63L62.62 22.73C62.62 21.66 62.3 20.84 61.66 20.27C61.04 19.69 60.11 19.4 58.88 19.4C57.96 19.4 57.08 19.56 56.25 19.88C55.42 20.2 54.55 20.67 53.63 21.29L52.25 18.48C53.36 17.75 54.49 17.21 55.64 16.84C56.82 16.48 58.04 16.3 59.32 16.3C61.71 16.3 63.57 16.9 64.89 18.09C66.24 19.29 66.91 20.99 66.91 23.21L66.91 28.56C66.91 29 66.98 29.32 67.13 29.52C67.3 29.71 67.57 29.82 67.93 29.87L67.93 33.35C67.55 33.42 67.2 33.47 66.88 33.52C66.58 33.56 66.32 33.58 66.11 33.58C65.26 33.58 64.6 33.39 64.16 33C63.73 32.62 63.46 32.15 63.36 31.59L63.26 30.73C62.54 31.67 61.63 32.39 60.54 32.91C59.45 33.42 58.34 33.67 57.21 33.67C56.1 33.67 55.1 33.45 54.2 33C53.33 32.53 52.64 31.9 52.12 31.11C51.63 30.3 51.39 29.4 51.39 28.39ZM61.82 29.26C62.06 29 62.25 28.75 62.4 28.49C62.55 28.24 62.62 28 62.62 27.79L62.62 26.09C62.11 25.88 61.55 25.72 60.96 25.61C60.36 25.48 59.79 25.42 59.26 25.42C58.15 25.42 57.23 25.66 56.51 26.15C55.8 26.62 55.45 27.25 55.45 28.04C55.45 28.47 55.57 28.87 55.8 29.26C56.04 29.64 56.38 29.95 56.83 30.19C57.28 30.42 57.81 30.54 58.43 30.54C59.07 30.54 59.7 30.42 60.32 30.19C60.94 29.93 61.44 29.62 61.82 29.26Z" fill="#F5F4F4" fill-opacity="1.000000" fill-rule="evenodd"/>
	<path id="Vector" d="M41.16 33.67C39.82 33.67 38.6 33.45 37.51 33C36.42 32.53 35.5 31.9 34.73 31.11C33.96 30.3 33.36 29.39 32.94 28.36C32.53 27.32 32.33 26.22 32.33 25.07C32.33 23.47 32.68 22.01 33.39 20.68C34.11 19.36 35.13 18.3 36.46 17.52C37.8 16.7 39.38 16.3 41.19 16.3C43.03 16.3 44.6 16.7 45.9 17.52C47.2 18.3 48.19 19.36 48.87 20.68C49.58 21.98 49.93 23.39 49.93 24.91C49.93 25.16 49.92 25.43 49.9 25.71C49.88 25.96 49.85 26.18 49.83 26.35L36.87 26.35C36.96 27.2 37.2 27.95 37.61 28.59C38.04 29.23 38.57 29.72 39.21 30.06C39.87 30.38 40.57 30.54 41.32 30.54C42.17 30.54 42.97 30.34 43.72 29.93C44.49 29.5 45.01 28.95 45.29 28.27L48.97 29.29C48.56 30.14 47.98 30.9 47.21 31.56C46.46 32.22 45.58 32.75 44.55 33.13C43.53 33.49 42.4 33.67 41.16 33.67ZM36.78 23.63L45.54 23.63C45.46 22.77 45.21 22.04 44.81 21.42C44.42 20.78 43.91 20.29 43.27 19.95C42.63 19.58 41.92 19.4 41.13 19.4C40.36 19.4 39.66 19.58 39.02 19.95C38.4 20.29 37.89 20.78 37.48 21.42C37.1 22.04 36.86 22.77 36.78 23.63Z" fill="#F5F4F4" fill-opacity="1.000000" fill-rule="evenodd"/>
	<path id="Vector" d="M10.14 10.7L14.24 10.7L16.83 18.22L19.45 10.7L23.52 10.7L19.61 21.04L22.49 28.27L28.92 10.64L33.72 10.64L24.64 33.36L20.83 33.36L16.83 23.82L12.86 33.36L9.05 33.36L0 10.64L4.73 10.64L11.2 28.27L14.01 21.04L10.14 10.7Z" fill="#F5F4F4" fill-opacity="1.000000" fill-rule="evenodd"/>
</svg>
